<svg xmlns:xlink="http://www.w3.org/1999/xlink" xmlns="http://www.w3.org/2000/svg" version="1.1" viewBox="0 0 1080 1080" height="1080px" width="1080px">
    <title>Empty state_money</title>
    <defs>
        <linearGradient id="linearGradient-1" y2="49.999%" x2="-25.0486869%" y1="49.999%" x1="120.941313%">
            <stop offset="0%" stop-opacity="0" stop-color="#C8CACD"></stop>
            <stop offset="100%" stop-color="#B2B5B8"></stop>
        </linearGradient>
        <linearGradient id="linearGradient-2" y2="99.9798247%" x2="49.4990945%" y1="9.63971254%" x1="50.517101%">
            <stop offset="0%" stop-color="#F4F5F5"></stop>
            <stop offset="100%" stop-color="#B3B6B9"></stop>
        </linearGradient>
        <linearGradient id="linearGradient-3" y2="99.8333092%" x2="50.3293803%" y1="7.46334065%" x1="49.8201842%">
            <stop offset="0%" stop-color="#F3F4F4"></stop>
            <stop offset="100%" stop-color="#B3B6B9"></stop>
        </linearGradient>
        <linearGradient id="linearGradient-4" y2="-44.1593651%" x2="49.9967123%" y1="100.010635%" x1="49.9967123%">
            <stop offset="0%" stop-color="#F8F8F9"></stop>
            <stop offset="100%" stop-color="#E2E3E4"></stop>
        </linearGradient>
        <linearGradient id="linearGradient-5" y2="2.87680233%" x2="49.9950427%" y1="99.6368023%" x1="49.9950427%">
            <stop offset="0%" stop-opacity="0" stop-color="#F4F5F5"></stop>
            <stop offset="100%" stop-color="#EEEFF0"></stop>
        </linearGradient>
        <linearGradient id="linearGradient-6" y2="2.85491453%" x2="50.0013111%" y1="99.7049145%" x1="50.0013111%">
            <stop offset="0%" stop-opacity="0" stop-color="#F4F5F5"></stop>
            <stop offset="100%" stop-color="#EEEFF0"></stop>
        </linearGradient>
        <linearGradient id="linearGradient-7" y2="0.10431694%" x2="49.9970261%" y1="100.004317%" x1="49.9970261%">
            <stop offset="0.2903294%" stop-opacity="0" stop-color="#F4F5F5"></stop>
            <stop offset="97.98%" stop-color="#F0F1F2"></stop>
        </linearGradient>
        <linearGradient id="linearGradient-8" y2="100.135451%" x2="49.2674945%" y1="9.51551319%" x1="50.8593448%">
            <stop offset="0%" stop-color="#F4F5F5"></stop>
            <stop offset="100%" stop-color="#B3B6B9"></stop>
        </linearGradient>
        <linearGradient id="linearGradient-9" y2="99.8624686%" x2="50.460387%" y1="7.70267331%" x1="49.5709381%">
            <stop offset="0%" stop-color="#F3F4F4"></stop>
            <stop offset="100%" stop-color="#B3B6B9"></stop>
        </linearGradient>
        <linearGradient id="linearGradient-10" y2="100.468411%" x2="49.150831%" y1="9.94853854%" x1="50.7540359%">
            <stop offset="0%" stop-color="#F4F5F5"></stop>
            <stop offset="100%" stop-color="#B3B6B9"></stop>
        </linearGradient>
        <linearGradient id="linearGradient-11" y2="99.7607635%" x2="50.6091894%" y1="7.54080286%" x1="49.6697403%">
            <stop offset="0%" stop-color="#F3F4F4"></stop>
            <stop offset="100%" stop-color="#B3B6B9"></stop>
        </linearGradient>
        <linearGradient id="linearGradient-12" y2="124.53%" x2="50.0116297%" y1="1.10241782e-11%" x1="50.0116297%">
            <stop offset="0%" stop-color="#C5C8CA"></stop>
            <stop offset="100%" stop-color="#E0E1E2"></stop>
        </linearGradient>
        <linearGradient id="linearGradient-13" y2="99.9989189%" x2="49.9992857%" y1="-0.00108108108%" x1="49.9992857%">
            <stop offset="0%" stop-color="#CCCED1"></stop>
            <stop offset="100%" stop-color="#EDEEEF"></stop>
        </linearGradient>
        <linearGradient id="linearGradient-14" y2="100.002245%" x2="49.9992857%" y1="0.00224532224%" x1="49.9992857%">
            <stop offset="0%" stop-color="#D7D8DA"></stop>
            <stop offset="100%" stop-color="#EDEEEF"></stop>
        </linearGradient>
        <linearGradient id="linearGradient-15" y2="99.8875529%" x2="50.0089873%" y1="-0.00244712991%" x1="50.0089873%">
            <stop offset="0%" stop-color="#CBCDD0"></stop>
            <stop offset="100%" stop-color="#F4F5F5"></stop>
        </linearGradient>
        <linearGradient id="linearGradient-16" y2="100.005118%" x2="50.0089873%" y1="0.00511784512%" x1="50.0089873%">
            <stop offset="0%" stop-color="#D7D8DA"></stop>
            <stop offset="100%" stop-color="#EDEEEF"></stop>
        </linearGradient>
        <linearGradient id="linearGradient-17" y2="99.995445%" x2="50.0207011%" y1="-0.00455497383%" x1="50.0207011%">
            <stop offset="0%" stop-color="#CCCED1"></stop>
            <stop offset="100%" stop-color="#EDEEEF"></stop>
        </linearGradient>
        <linearGradient id="linearGradient-18" y2="100.004421%" x2="50.0274074%" y1="0.00442105263%" x1="50.0274074%">
            <stop offset="0%" stop-color="#D7D8DA"></stop>
            <stop offset="100%" stop-color="#EDEEEF"></stop>
        </linearGradient>
        <linearGradient id="linearGradient-19" y2="99.9996543%" x2="50.0045339%" y1="-0.000345710623%" x1="50.0045339%">
            <stop offset="0%" stop-color="#E4E5E6"></stop>
            <stop offset="100%" stop-color="#AFB2B6"></stop>
        </linearGradient>
        <linearGradient id="linearGradient-20" y2="99.9996982%" x2="50.0045339%" y1="-0.000301783277%" x1="50.0045339%">
            <stop offset="0%" stop-color="#EFF0F1"></stop>
            <stop offset="100%" stop-color="#BBBDC1"></stop>
        </linearGradient>
        <linearGradient id="linearGradient-21" y2="49.9929885%" x2="99.9328107%" y1="49.9929885%" x1="0.282810707%">
            <stop offset="0%" stop-color="#C4C7C9"></stop>
            <stop offset="100%" stop-color="#E0E1E2"></stop>
        </linearGradient>
        <linearGradient id="linearGradient-22" y2="50.0006173%" x2="99.9328107%" y1="50.0006173%" x1="0.282810707%">
            <stop offset="0%" stop-color="#FFFFFF"></stop>
            <stop offset="100%" stop-opacity="0.09743772" stop-color="#FFFFFF"></stop>
        </linearGradient>
        <linearGradient id="linearGradient-23" y2="6.50282609%" x2="49.9976087%" y1="114.902826%" x1="49.9976087%">
            <stop offset="0%" stop-color="#FFFFFF"></stop>
            <stop offset="100%" stop-color="#CFD1D3"></stop>
        </linearGradient>
        <linearGradient id="linearGradient-24" y2="6.51717391%" x2="49.9976087%" y1="114.907174%" x1="49.9976087%">
            <stop offset="0%" stop-opacity="0.09743772" stop-color="#FFFFFF"></stop>
            <stop offset="100%" stop-color="#FFFFFF"></stop>
        </linearGradient>
    </defs>
    <g opacity="0.8" fill-rule="evenodd" fill="none" stroke-width="1" stroke="none" id="基础组件">
        <g fill-rule="nonzero" id="Empty-state_money">
            <g id="编组">
                <g id="编组-14">
                    <rect height="1080" width="1080" y="0" x="0" fill="#FFFFFF" fill-opacity="0" id="矩形"></rect>
                    <ellipse ry="15" rx="148.5" cy="881.7" cx="540" opacity="0.331" fill="url(#linearGradient-1)" id="椭圆形"></ellipse>
                    <g transform="translate(167.161830, 585.966414)" opacity="0.7794" id="编组备份-2">
                        <ellipse ry="5.4" rx="17.4" cy="82.1667915" cx="47.5190856" opacity="0.5988" fill="#9DA1A6" id="椭圆形_1_"></ellipse>
                        <path opacity="0.5765" fill="url(#linearGradient-2)" id="椭圆形_2_" d="M32.2190856,82.1667915 C37.0190856,84.2667915 60.4190856,47.6667915 63.7190856,38.0667915 C67.0190856,28.4667916 63.4190856,17.6667916 55.6190856,14.3667916 C47.8190856,11.0667916 38.8190856,16.1667916 35.5190856,26.0667916 C32.2190856,35.9667915 27.1190857,80.0667915 32.2190856,82.1667915 Z"></path>
                        <path fill="url(#linearGradient-3)" id="椭圆形_3_" d="M33.1190856,82.1667915 C39.1190856,80.3667915 38.2190856,28.4667916 35.2190856,16.7667916 C32.2190856,5.06679156 22.3190857,-2.13320844 12.7190857,0.56679156 C3.11908572,3.26679156 -1.98091428,14.9667916 0.719085721,26.6667916 C3.41908572,38.3667915 27.1190857,83.9667915 33.1190856,82.1667915 Z"></path>
                    </g>
                    <path opacity="0.7" fill="url(#linearGradient-4)" id="形状结合" d="M171.6,245.7 C170.4,245.7 169.2,245.7 168,245.4 C166.5,245.7 165,245.7 163.5,245.7 C140.4,245.7 121.5,227.1 121.5,203.7 C121.5,180.3 140.1,162 163.5,162 C166.2,162 168.9,162.3 171.3,162.6 C180.9,144.6 199.8,132.3 221.7,132.3 C252.9,132.3 278.4,157.8 278.4,189 L278.4,189 L312,189 C327.6,189 340.5,201.6 340.5,217.2 C340.5,232.8 327.9,245.7 312,245.7 L171.6,245.7 Z"></path>
                    <g transform="translate(108.000000, 658.800000)" id="编组-2">
                        <path fill="url(#linearGradient-5)" id="路径" d="M0,140.4 C46.8,71.7 91.8,37.2 134.4,37.2 C177,37.2 225.9,71.7 280.8,140.4 L0,140.4 Z"></path>
                        <path fill="url(#linearGradient-6)" id="路径-2" d="M166.2,140.4 C215.7,46.8 268.8,0 325.2,0 C381.6,0 484.2,46.8 633,140.4 L166.2,140.4 Z"></path>
                        <path fill="url(#linearGradient-7)" id="路径-3" d="M864,140.4 C812.4,67.2 763.5,30.6 717.9,30.6 C672.3,30.6 598.5,67.2 496.8,140.4 L864,140.4 Z"></path>
                    </g>
                    <g transform="translate(772.317252, 537.206304)" id="编组-62">
                        <ellipse ry="4.2" rx="13.5" cy="57.9468483" cx="37.7413755" opacity="0.6699" fill="#9DA1A6" id="椭圆形_4_"></ellipse>
                        <path opacity="0.5765" fill="url(#linearGradient-8)" id="椭圆形_5_" d="M26.0413755,57.9468483 C29.9413755,59.4468483 47.6413755,33.3468483 50.3413755,26.4468484 C53.0413755,19.5468484 50.0413755,12.0468484 44.3413755,9.64684836 C38.6413755,7.24684836 31.4413755,11.1468484 28.7413755,18.0468484 C26.0413755,24.6468484 22.4413755,56.4468483 26.0413755,57.9468483 Z"></path>
                        <path fill="url(#linearGradient-9)" id="椭圆形_6_" d="M25.4413755,57.9468483 C30.2413755,56.7468483 29.3413755,20.1468484 27.2413755,12.0468484 C25.1413755,3.94684836 17.0413755,-1.45315164 9.84137547,0.34684836 C2.64137547,2.14684836 -1.55862453,10.5468484 0.541375469,18.6468484 C2.64137547,26.7468484 20.9413755,59.1468483 25.4413755,57.9468483 Z"></path>
                    </g>
                    <g transform="translate(796.723260, 788.264682)" opacity="0.8969" id="编组">
                        <ellipse ry="5.4" rx="17.7" cy="97.2676599" cx="56.2883712" opacity="0.5969" fill="#9DA1A6" id="椭圆形_7_"></ellipse>
                        <path opacity="0.5765" fill="url(#linearGradient-10)" id="椭圆形_8_" d="M43.6883712,98.1676599 C49.9883712,100.56766 80.2883712,56.4676599 84.7883712,44.7676599 C89.2883712,33.0676599 84.4883712,20.1676598 74.2883712,16.2676598 C64.0883712,12.3676598 52.3883712,18.6676598 47.8883712,30.3676599 C43.3883712,42.0676599 37.3883712,95.7676599 43.6883712,98.1676599 Z"></path>
                        <path fill="url(#linearGradient-11)" id="椭圆形_9_" d="M43.6883712,98.4676599 C51.7883712,96.3676599 50.5883712,34.2676599 46.6883712,20.4676598 C42.7883712,6.66765978 29.2883711,-2.63234023 16.6883711,0.667659768 C4.08837108,3.96765978 -2.81162892,18.0676598 1.08837108,32.1676599 C4.98837108,46.2676599 35.5883712,100.56766 43.6883712,98.4676599 Z"></path>
                    </g>
                </g>
                <g transform="translate(342.468906, 383.400000)" id="编组-13">
                    <polygon points="45.6 69 356.7 69 356.7 168 45.6 168" fill="url(#linearGradient-12)" id="矩形_1_"></polygon>
                    <path opacity="0.755208333" fill="url(#linearGradient-13)" id="矩形_2_" d="M1.8,129.3 L84,0 L84,0 L84,98.4 L0,288.6 L0,135 C0,132.9 0.6,130.8 1.8,129.3 Z"></path>
                    <path fill="url(#linearGradient-14)" id="矩形备份-17" d="M1.8,137.4 L84,8.1 L84,8.1 L84,106.5 L0,296.7 L0,143.1 C0,141 0.6,138.9 1.8,137.4 Z"></path>
                    <rect height="99.3" width="237" y="0" x="84" opacity="0.755208333" fill="url(#linearGradient-15)" id="矩形_3_"></rect>
                    <rect height="89.1" width="237" y="5.4" x="84" fill="url(#linearGradient-16)" id="矩形备份-16"></rect>
                    <path opacity="0.755208333" fill="url(#linearGradient-17)" id="矩形_4_" d="M400.5,126.9 L321,0 L321,0 L321,98.4 L402.3,286.5 L402.3,132.6 C402.3,130.8 401.7,128.7 400.5,126.9 Z"></path>
                    <path fill="url(#linearGradient-18)" id="矩形备份-18" d="M400.5,133.5 L321.3,8.1 L321.3,8.1 L321.3,106.5 L402.3,293.1 L402.3,139.5 C402.3,137.4 401.7,135.3 400.5,133.5 Z"></path>
                    <g transform="translate(0.000000, 132.244899)" id="形状结合备份-7">
                        <g fill="url(#linearGradient-19)" id="蒙版">
                            <path id="path-24" d="M402.3,0 L402.3,212.7 C402.3,224.7 392.7,234.3 380.7,234.3 L21.6,234.3 C9.6,234.3 0,224.7 0,212.7 L0,0 L164.7,0 L164.7,0 C164.7,20.1 180.9,36.6 201.3,36.6 C221.7,36.6 237.6,20.1 237.6,0 L402.3,0 Z"></path>
                        </g>
                        <g fill="url(#linearGradient-20)" transform="translate(0.000000, 5.400000)" id="Clipped">
                            <path id="路径_1_" d="M402.3,0 L402.3,197.1 C402.3,209.1 392.7,218.7 380.7,218.7 L21.6,218.7 C9.6,218.7 0,209.1 0,197.1 L0,0 L164.7,0 L164.7,0 C164.7,20.1 180.9,36.6 201,36.6 C221.1,36.6 237.6,20.1 237.6,0 L402.3,0 Z"></path>
                        </g>
                    </g>
                    <g fill="url(#linearGradient-21)" transform="translate(125.357142, 206.632653)" id="蒙版_1_">
                        <path id="path-28" d="M26.1,0 L130.8,0 C145.2,0 156.9,11.7 156.9,26.1 C156.9,40.5 145.2,52.2 130.8,52.2 L26.1,52.2 C11.7,52.2 0,40.5 0,26.1 C0,11.7 11.7,0 26.1,0 Z"></path>
                    </g>
                    <g fill="url(#linearGradient-22)" transform="translate(125.357142, 204.979593)" id="蒙版备份-4">
                        <path id="path-31" d="M24.3,0 L132.6,0 C146.1,0 156.9,10.8 156.9,24.3 C156.9,37.8 146.1,48.6 132.6,48.6 L24.3,48.6 C10.8,48.6 0,37.8 0,24.3 C0,10.8 10.8,0 24.3,0 Z"></path>
                    </g>
                </g>
                <circle r="13.8" cy="612.3" cx="545.1" fill="url(#linearGradient-23)" id="椭圆形_10_"></circle>
                <circle r="13.8" cy="615" cx="545.1" fill="url(#linearGradient-24)" id="椭圆形备份-17"></circle>
            </g>
        </g>
    </g>
</svg>